<svg xmlns="http://www.w3.org/2000/svg" version="1.1" xmlns:xlink="http://www.w3.org/1999/xlink" xmlns:svgjs="http://svgjs.com/svgjs" width="1440" height="560" preserveAspectRatio="none" viewBox="0 0 1440 560"><g mask="url(&quot;#SvgjsMask1006&quot;)" fill="none"><rect width="1440" height="560" x="0" y="0" fill="url(#SvgjsLinearGradient1007)"></rect><path d="M1104.03 149.92a37.52 37.52 0 1 0 26.53 70.19z" stroke="rgba(19, 171, 171, 1)"></path><path d="M309.51 468.73L334.62 468.73L334.62 493.84L309.51 493.84z" stroke="#e73635"></path><path d="M57.84 440.88L86.52 440.88L86.52 469.56L57.84 469.56z" stroke="#037b0b"></path><path d="M1436.96 362.07L1441.93 362.07L1441.93 367.04L1436.96 367.04z" fill="rgba(192, 89, 2, 1)"></path><path d="M850.81 493.94 a54.24 54.24 0 1 0 108.48 0 a54.24 54.24 0 1 0 -108.48 0z" fill="#d3b714"></path><path d="M591.64 203.91 a5.01 5.01 0 1 0 10.02 0 a5.01 5.01 0 1 0 -10.02 0z" stroke="#d3b714"></path><path d="M220.75 250.64 a14.75 14.75 0 1 0 29.5 0 a14.75 14.75 0 1 0 -29.5 0z" stroke="#d3b714"></path><path d="M1034.2 532.17a53.09 53.09 0 1 0 98.14-40.52z" fill="#d3b714"></path><path d="M1188.02 275.42L1194.41 275.42L1194.41 309.89L1188.02 309.89z" fill="rgba(192, 89, 2, 1)"></path><path d="M985.35 506.98a45.48 45.48 0 1 0 56-71.68z" stroke="rgba(192, 89, 2, 1)"></path><path d="M665.15 382.19a37.81 37.81 0 1 0-19.22-73.14z" stroke="rgba(171, 19, 19, 1)"></path><path d="M594.19 230.14L648.1 230.14L648.1 284.05L594.19 284.05z" stroke="rgba(171, 19, 19, 1)"></path><path d="M877.48 65.58a41.54 41.54 0 1 0-25.95 78.93z" stroke="#037b0b"></path><path d="M301.55 285.02 a22.94 22.94 0 1 0 45.88 0 a22.94 22.94 0 1 0 -45.88 0z" stroke="#037b0b"></path><path d="M1001.7 62.44L1053.06 62.44L1053.06 113.8L1001.7 113.8z" stroke="#037b0b"></path><path d="M31.47 316.63 a22.3 22.3 0 1 0 44.6 0 a22.3 22.3 0 1 0 -44.6 0z" stroke="#037b0b"></path><path d="M993.53 459.11 a53.76 53.76 0 1 0 107.52 0 a53.76 53.76 0 1 0 -107.52 0z" stroke="#d3b714"></path><path d="M457.59 407.49L477.88 407.49L477.88 427.78L457.59 427.78z" fill="rgba(171, 19, 19, 1)"></path><path d="M1208.37 63.52 a17.48 17.48 0 1 0 34.96 0 a17.48 17.48 0 1 0 -34.96 0z" fill="rgba(19, 171, 171, 1)"></path><path d="M1324.31 95.79 a48.86 48.86 0 1 0 97.72 0 a48.86 48.86 0 1 0 -97.72 0z" stroke="rgba(192, 89, 2, 1)"></path><path d="M885.24 368.53L939.55 368.53L939.55 420.63L885.24 420.63z" stroke="#037b0b"></path><path d="M466.39 419.76L511.82 419.76L511.82 471.85L466.39 471.85z" fill="#e73635"></path><path d="M303.57 146.2a41.43 41.43 0 1 0 9.05-82.36z" stroke="#e73635"></path><path d="M174.61 384.6 a36.24 36.24 0 1 0 72.48 0 a36.24 36.24 0 1 0 -72.48 0z" stroke="#e73635"></path><path d="M1304.53 432.04L1337.6 432.04L1337.6 465.11L1304.53 465.11z" fill="#d3b714"></path><path d="M419.97 403.71L439.29 403.71L439.29 423.03L419.97 423.03z" fill="rgba(192, 89, 2, 1)"></path><path d="M525.42 437.48L565.05 437.48L565.05 453.26L525.42 453.26z" fill="rgba(192, 89, 2, 1)"></path><path d="M151.4 343.63L157.52 343.63L157.52 349.75L151.4 349.75z" stroke="rgba(192, 89, 2, 1)"></path><path d="M-23.45 46.12 a36.28 36.28 0 1 0 72.56 0 a36.28 36.28 0 1 0 -72.56 0z" stroke="rgba(19, 171, 171, 1)"></path><path d="M477.68 220.5L479.02 220.5L479.02 221.84L477.68 221.84z" stroke="#037b0b"></path><path d="M430.12 526.6L436.89 526.6L436.89 533.37L430.12 533.37z" stroke="rgba(19, 171, 171, 1)"></path><path d="M138.17 363.86L185.81 363.86L185.81 368.7L138.17 368.7z" stroke="#e73635"></path><path d="M225.29 589.03a38.37 38.37 0 1 0-10.77-75.98z" stroke="#d3b714"></path></g><defs><mask id="SvgjsMask1006"><rect width="1440" height="560" fill="#ffffff"></rect></mask><linearGradient x1="15.28%" y1="-39.29%" x2="84.72%" y2="139.29%" gradientUnits="userSpaceOnUse" id="SvgjsLinearGradient1007"><stop stop-color="#0e2a47" offset="0"></stop><stop stop-color="#00459e" offset="1"></stop></linearGradient></defs></svg>